<?xml version="1.0" encoding="utf-8"?>
<svg xmlns="http://www.w3.org/2000/svg" xmlns:xlink="http://www.w3.org/1999/xlink" width="600" height="400" viewBox="0 0 2400 1600">
<defs>
  <clipPath id="clip880">
    <rect x="0" y="0" width="2400" height="1600"/>
  </clipPath>
</defs>
<path clip-path="url(#clip880)" d="M0 1600 L2400 1600 L2400 0 L0 0  Z" fill="#ffffff" fill-rule="evenodd" fill-opacity="1"/>
<defs>
  <clipPath id="clip881">
    <rect x="480" y="0" width="1681" height="1600"/>
  </clipPath>
</defs>
<path clip-path="url(#clip880)" d="M254.26 1486.45 L2352.76 1486.45 L2352.76 47.2441 L254.26 47.2441  Z" fill="#ffffff" fill-rule="evenodd" fill-opacity="1"/>
<defs>
  <clipPath id="clip882">
    <rect x="254" y="47" width="2099" height="1440"/>
  </clipPath>
</defs>
<polyline clip-path="url(#clip882)" style="stroke:#000000; stroke-linecap:round; stroke-linejoin:round; stroke-width:2; stroke-opacity:0.1; fill:none" points="308.702,1486.45 308.702,47.2441 "/>
<polyline clip-path="url(#clip882)" style="stroke:#000000; stroke-linecap:round; stroke-linejoin:round; stroke-width:2; stroke-opacity:0.1; fill:none" points="803.63,1486.45 803.63,47.2441 "/>
<polyline clip-path="url(#clip882)" style="stroke:#000000; stroke-linecap:round; stroke-linejoin:round; stroke-width:2; stroke-opacity:0.1; fill:none" points="1298.56,1486.45 1298.56,47.2441 "/>
<polyline clip-path="url(#clip882)" style="stroke:#000000; stroke-linecap:round; stroke-linejoin:round; stroke-width:2; stroke-opacity:0.1; fill:none" points="1793.49,1486.45 1793.49,47.2441 "/>
<polyline clip-path="url(#clip882)" style="stroke:#000000; stroke-linecap:round; stroke-linejoin:round; stroke-width:2; stroke-opacity:0.1; fill:none" points="2288.42,1486.45 2288.42,47.2441 "/>
<polyline clip-path="url(#clip882)" style="stroke:#000000; stroke-linecap:round; stroke-linejoin:round; stroke-width:2; stroke-opacity:0.1; fill:none" points="254.26,1439.68 2352.76,1439.68 "/>
<polyline clip-path="url(#clip882)" style="stroke:#000000; stroke-linecap:round; stroke-linejoin:round; stroke-width:2; stroke-opacity:0.1; fill:none" points="254.26,1218.99 2352.76,1218.99 "/>
<polyline clip-path="url(#clip882)" style="stroke:#000000; stroke-linecap:round; stroke-linejoin:round; stroke-width:2; stroke-opacity:0.1; fill:none" points="254.26,998.308 2352.76,998.308 "/>
<polyline clip-path="url(#clip882)" style="stroke:#000000; stroke-linecap:round; stroke-linejoin:round; stroke-width:2; stroke-opacity:0.1; fill:none" points="254.26,777.622 2352.76,777.622 "/>
<polyline clip-path="url(#clip882)" style="stroke:#000000; stroke-linecap:round; stroke-linejoin:round; stroke-width:2; stroke-opacity:0.1; fill:none" points="254.26,556.935 2352.76,556.935 "/>
<polyline clip-path="url(#clip882)" style="stroke:#000000; stroke-linecap:round; stroke-linejoin:round; stroke-width:2; stroke-opacity:0.1; fill:none" points="254.26,336.249 2352.76,336.249 "/>
<polyline clip-path="url(#clip882)" style="stroke:#000000; stroke-linecap:round; stroke-linejoin:round; stroke-width:2; stroke-opacity:0.1; fill:none" points="254.26,115.562 2352.76,115.562 "/>
<polyline clip-path="url(#clip880)" style="stroke:#000000; stroke-linecap:round; stroke-linejoin:round; stroke-width:4; stroke-opacity:1; fill:none" points="254.26,1486.45 2352.76,1486.45 "/>
<polyline clip-path="url(#clip880)" style="stroke:#000000; stroke-linecap:round; stroke-linejoin:round; stroke-width:4; stroke-opacity:1; fill:none" points="308.702,1486.45 308.702,1467.55 "/>
<polyline clip-path="url(#clip880)" style="stroke:#000000; stroke-linecap:round; stroke-linejoin:round; stroke-width:4; stroke-opacity:1; fill:none" points="803.63,1486.45 803.63,1467.55 "/>
<polyline clip-path="url(#clip880)" style="stroke:#000000; stroke-linecap:round; stroke-linejoin:round; stroke-width:4; stroke-opacity:1; fill:none" points="1298.56,1486.45 1298.56,1467.55 "/>
<polyline clip-path="url(#clip880)" style="stroke:#000000; stroke-linecap:round; stroke-linejoin:round; stroke-width:4; stroke-opacity:1; fill:none" points="1793.49,1486.45 1793.49,1467.55 "/>
<polyline clip-path="url(#clip880)" style="stroke:#000000; stroke-linecap:round; stroke-linejoin:round; stroke-width:4; stroke-opacity:1; fill:none" points="2288.42,1486.45 2288.42,1467.55 "/>
<path clip-path="url(#clip880)" d="M308.702 1517.37 Q305.091 1517.37 303.262 1520.93 Q301.457 1524.47 301.457 1531.6 Q301.457 1538.71 303.262 1542.27 Q305.091 1545.82 308.702 1545.82 Q312.336 1545.82 314.142 1542.27 Q315.97 1538.71 315.97 1531.6 Q315.97 1524.47 314.142 1520.93 Q312.336 1517.37 308.702 1517.37 M308.702 1513.66 Q314.512 1513.66 317.568 1518.27 Q320.646 1522.85 320.646 1531.6 Q320.646 1540.33 317.568 1544.94 Q314.512 1549.52 308.702 1549.52 Q302.892 1549.52 299.813 1544.94 Q296.757 1540.33 296.757 1531.6 Q296.757 1522.85 299.813 1518.27 Q302.892 1513.66 308.702 1513.66 Z" fill="#000000" fill-rule="nonzero" fill-opacity="1" /><path clip-path="url(#clip880)" d="M763.237 1544.91 L770.876 1544.91 L770.876 1518.55 L762.566 1520.21 L762.566 1515.95 L770.829 1514.29 L775.505 1514.29 L775.505 1544.91 L783.144 1544.91 L783.144 1548.85 L763.237 1548.85 L763.237 1544.91 Z" fill="#000000" fill-rule="nonzero" fill-opacity="1" /><path clip-path="url(#clip880)" d="M802.589 1517.37 Q798.977 1517.37 797.149 1520.93 Q795.343 1524.47 795.343 1531.6 Q795.343 1538.71 797.149 1542.27 Q798.977 1545.82 802.589 1545.82 Q806.223 1545.82 808.028 1542.27 Q809.857 1538.71 809.857 1531.6 Q809.857 1524.47 808.028 1520.93 Q806.223 1517.37 802.589 1517.37 M802.589 1513.66 Q808.399 1513.66 811.454 1518.27 Q814.533 1522.85 814.533 1531.6 Q814.533 1540.33 811.454 1544.94 Q808.399 1549.52 802.589 1549.52 Q796.778 1549.52 793.7 1544.94 Q790.644 1540.33 790.644 1531.6 Q790.644 1522.85 793.7 1518.27 Q796.778 1513.66 802.589 1513.66 Z" fill="#000000" fill-rule="nonzero" fill-opacity="1" /><path clip-path="url(#clip880)" d="M832.75 1517.37 Q829.139 1517.37 827.311 1520.93 Q825.505 1524.47 825.505 1531.6 Q825.505 1538.71 827.311 1542.27 Q829.139 1545.82 832.75 1545.82 Q836.385 1545.82 838.19 1542.27 Q840.019 1538.71 840.019 1531.6 Q840.019 1524.47 838.19 1520.93 Q836.385 1517.37 832.75 1517.37 M832.75 1513.66 Q838.561 1513.66 841.616 1518.27 Q844.695 1522.85 844.695 1531.6 Q844.695 1540.33 841.616 1544.94 Q838.561 1549.52 832.75 1549.52 Q826.94 1549.52 823.862 1544.94 Q820.806 1540.33 820.806 1531.6 Q820.806 1522.85 823.862 1518.27 Q826.94 1513.66 832.75 1513.66 Z" fill="#000000" fill-rule="nonzero" fill-opacity="1" /><path clip-path="url(#clip880)" d="M1262.25 1544.91 L1278.57 1544.91 L1278.57 1548.85 L1256.63 1548.85 L1256.63 1544.91 Q1259.29 1542.16 1263.87 1537.53 Q1268.48 1532.88 1269.66 1531.53 Q1271.9 1529.01 1272.78 1527.27 Q1273.69 1525.51 1273.69 1523.82 Q1273.69 1521.07 1271.74 1519.33 Q1269.82 1517.6 1266.72 1517.6 Q1264.52 1517.6 1262.07 1518.36 Q1259.64 1519.13 1256.86 1520.68 L1256.86 1515.95 Q1259.68 1514.82 1262.14 1514.24 Q1264.59 1513.66 1266.63 1513.66 Q1272 1513.66 1275.19 1516.35 Q1278.39 1519.03 1278.39 1523.52 Q1278.39 1525.65 1277.57 1527.57 Q1276.79 1529.47 1274.68 1532.07 Q1274.1 1532.74 1271 1535.95 Q1267.9 1539.15 1262.25 1544.91 Z" fill="#000000" fill-rule="nonzero" fill-opacity="1" /><path clip-path="url(#clip880)" d="M1298.38 1517.37 Q1294.77 1517.37 1292.95 1520.93 Q1291.14 1524.47 1291.14 1531.6 Q1291.14 1538.71 1292.95 1542.27 Q1294.77 1545.82 1298.38 1545.82 Q1302.02 1545.82 1303.82 1542.27 Q1305.65 1538.71 1305.65 1531.6 Q1305.65 1524.47 1303.82 1520.93 Q1302.02 1517.37 1298.38 1517.37 M1298.38 1513.66 Q1304.2 1513.66 1307.25 1518.27 Q1310.33 1522.85 1310.33 1531.6 Q1310.33 1540.33 1307.25 1544.94 Q1304.2 1549.52 1298.38 1549.52 Q1292.57 1549.52 1289.5 1544.94 Q1286.44 1540.33 1286.44 1531.6 Q1286.44 1522.85 1289.5 1518.27 Q1292.57 1513.66 1298.38 1513.66 Z" fill="#000000" fill-rule="nonzero" fill-opacity="1" /><path clip-path="url(#clip880)" d="M1328.55 1517.37 Q1324.94 1517.37 1323.11 1520.93 Q1321.3 1524.47 1321.3 1531.6 Q1321.3 1538.71 1323.11 1542.27 Q1324.94 1545.82 1328.55 1545.82 Q1332.18 1545.82 1333.99 1542.27 Q1335.82 1538.71 1335.82 1531.6 Q1335.82 1524.47 1333.99 1520.93 Q1332.18 1517.37 1328.55 1517.37 M1328.55 1513.66 Q1334.36 1513.66 1337.41 1518.27 Q1340.49 1522.85 1340.49 1531.6 Q1340.49 1540.33 1337.41 1544.94 Q1334.36 1549.52 1328.55 1549.52 Q1322.74 1549.52 1319.66 1544.94 Q1316.6 1540.33 1316.6 1531.6 Q1316.6 1522.85 1319.66 1518.27 Q1322.74 1513.66 1328.55 1513.66 Z" fill="#000000" fill-rule="nonzero" fill-opacity="1" /><path clip-path="url(#clip880)" d="M1767.25 1530.21 Q1770.61 1530.93 1772.48 1533.2 Q1774.38 1535.47 1774.38 1538.8 Q1774.38 1543.92 1770.86 1546.72 Q1767.34 1549.52 1760.86 1549.52 Q1758.68 1549.52 1756.37 1549.08 Q1754.08 1548.66 1751.62 1547.81 L1751.62 1543.29 Q1753.57 1544.43 1755.88 1545.01 Q1758.2 1545.58 1760.72 1545.58 Q1765.12 1545.58 1767.41 1543.85 Q1769.73 1542.11 1769.73 1538.8 Q1769.73 1535.75 1767.57 1534.03 Q1765.44 1532.3 1761.62 1532.3 L1757.6 1532.3 L1757.6 1528.45 L1761.81 1528.45 Q1765.26 1528.45 1767.09 1527.09 Q1768.92 1525.7 1768.92 1523.11 Q1768.92 1520.45 1767.02 1519.03 Q1765.14 1517.6 1761.62 1517.6 Q1759.7 1517.6 1757.5 1518.01 Q1755.3 1518.43 1752.67 1519.31 L1752.67 1515.14 Q1755.33 1514.4 1757.64 1514.03 Q1759.98 1513.66 1762.04 1513.66 Q1767.36 1513.66 1770.47 1516.09 Q1773.57 1518.5 1773.57 1522.62 Q1773.57 1525.49 1771.92 1527.48 Q1770.28 1529.45 1767.25 1530.21 Z" fill="#000000" fill-rule="nonzero" fill-opacity="1" /><path clip-path="url(#clip880)" d="M1793.24 1517.37 Q1789.63 1517.37 1787.8 1520.93 Q1786 1524.47 1786 1531.6 Q1786 1538.71 1787.8 1542.27 Q1789.63 1545.82 1793.24 1545.82 Q1796.88 1545.82 1798.68 1542.27 Q1800.51 1538.71 1800.51 1531.6 Q1800.51 1524.47 1798.68 1520.93 Q1796.88 1517.37 1793.24 1517.37 M1793.24 1513.66 Q1799.05 1513.66 1802.11 1518.27 Q1805.19 1522.85 1805.19 1531.6 Q1805.19 1540.33 1802.11 1544.94 Q1799.05 1549.52 1793.24 1549.52 Q1787.43 1549.52 1784.35 1544.94 Q1781.3 1540.33 1781.3 1531.6 Q1781.3 1522.85 1784.35 1518.27 Q1787.43 1513.66 1793.24 1513.66 Z" fill="#000000" fill-rule="nonzero" fill-opacity="1" /><path clip-path="url(#clip880)" d="M1823.41 1517.37 Q1819.79 1517.37 1817.97 1520.93 Q1816.16 1524.47 1816.16 1531.6 Q1816.16 1538.71 1817.97 1542.27 Q1819.79 1545.82 1823.41 1545.82 Q1827.04 1545.82 1828.85 1542.27 Q1830.67 1538.71 1830.67 1531.6 Q1830.67 1524.47 1828.85 1520.93 Q1827.04 1517.37 1823.41 1517.37 M1823.41 1513.66 Q1829.22 1513.66 1832.27 1518.27 Q1835.35 1522.85 1835.35 1531.6 Q1835.35 1540.33 1832.27 1544.94 Q1829.22 1549.52 1823.41 1549.52 Q1817.6 1549.52 1814.52 1544.94 Q1811.46 1540.33 1811.46 1531.6 Q1811.46 1522.85 1814.52 1518.27 Q1817.6 1513.66 1823.41 1513.66 Z" fill="#000000" fill-rule="nonzero" fill-opacity="1" /><path clip-path="url(#clip880)" d="M2261.51 1518.36 L2249.7 1536.81 L2261.51 1536.81 L2261.51 1518.36 M2260.28 1514.29 L2266.16 1514.29 L2266.16 1536.81 L2271.09 1536.81 L2271.09 1540.7 L2266.16 1540.7 L2266.16 1548.85 L2261.51 1548.85 L2261.51 1540.7 L2245.9 1540.7 L2245.9 1536.19 L2260.28 1514.29 Z" fill="#000000" fill-rule="nonzero" fill-opacity="1" /><path clip-path="url(#clip880)" d="M2288.82 1517.37 Q2285.21 1517.37 2283.38 1520.93 Q2281.57 1524.47 2281.57 1531.6 Q2281.57 1538.71 2283.38 1542.27 Q2285.21 1545.82 2288.82 1545.82 Q2292.45 1545.82 2294.26 1542.27 Q2296.09 1538.71 2296.09 1531.6 Q2296.09 1524.47 2294.26 1520.93 Q2292.45 1517.37 2288.82 1517.37 M2288.82 1513.66 Q2294.63 1513.66 2297.69 1518.27 Q2300.76 1522.85 2300.76 1531.6 Q2300.76 1540.33 2297.69 1544.94 Q2294.63 1549.52 2288.82 1549.52 Q2283.01 1549.52 2279.93 1544.94 Q2276.88 1540.33 2276.88 1531.6 Q2276.88 1522.85 2279.93 1518.27 Q2283.01 1513.66 2288.82 1513.66 Z" fill="#000000" fill-rule="nonzero" fill-opacity="1" /><path clip-path="url(#clip880)" d="M2318.98 1517.37 Q2315.37 1517.37 2313.54 1520.93 Q2311.74 1524.47 2311.74 1531.6 Q2311.74 1538.71 2313.54 1542.27 Q2315.37 1545.82 2318.98 1545.82 Q2322.62 1545.82 2324.42 1542.27 Q2326.25 1538.71 2326.25 1531.6 Q2326.25 1524.47 2324.42 1520.93 Q2322.62 1517.37 2318.98 1517.37 M2318.98 1513.66 Q2324.79 1513.66 2327.85 1518.27 Q2330.93 1522.85 2330.93 1531.6 Q2330.93 1540.33 2327.85 1544.94 Q2324.79 1549.52 2318.98 1549.52 Q2313.17 1549.52 2310.09 1544.94 Q2307.04 1540.33 2307.04 1531.6 Q2307.04 1522.85 2310.09 1518.27 Q2313.17 1513.66 2318.98 1513.66 Z" fill="#000000" fill-rule="nonzero" fill-opacity="1" /><polyline clip-path="url(#clip880)" style="stroke:#000000; stroke-linecap:round; stroke-linejoin:round; stroke-width:4; stroke-opacity:1; fill:none" points="254.26,1486.45 254.26,47.2441 "/>
<polyline clip-path="url(#clip880)" style="stroke:#000000; stroke-linecap:round; stroke-linejoin:round; stroke-width:4; stroke-opacity:1; fill:none" points="254.26,1439.68 273.157,1439.68 "/>
<polyline clip-path="url(#clip880)" style="stroke:#000000; stroke-linecap:round; stroke-linejoin:round; stroke-width:4; stroke-opacity:1; fill:none" points="254.26,1218.99 273.157,1218.99 "/>
<polyline clip-path="url(#clip880)" style="stroke:#000000; stroke-linecap:round; stroke-linejoin:round; stroke-width:4; stroke-opacity:1; fill:none" points="254.26,998.308 273.157,998.308 "/>
<polyline clip-path="url(#clip880)" style="stroke:#000000; stroke-linecap:round; stroke-linejoin:round; stroke-width:4; stroke-opacity:1; fill:none" points="254.26,777.622 273.157,777.622 "/>
<polyline clip-path="url(#clip880)" style="stroke:#000000; stroke-linecap:round; stroke-linejoin:round; stroke-width:4; stroke-opacity:1; fill:none" points="254.26,556.935 273.157,556.935 "/>
<polyline clip-path="url(#clip880)" style="stroke:#000000; stroke-linecap:round; stroke-linejoin:round; stroke-width:4; stroke-opacity:1; fill:none" points="254.26,336.249 273.157,336.249 "/>
<polyline clip-path="url(#clip880)" style="stroke:#000000; stroke-linecap:round; stroke-linejoin:round; stroke-width:4; stroke-opacity:1; fill:none" points="254.26,115.562 273.157,115.562 "/>
<path clip-path="url(#clip880)" d="M51.9875 1440.13 L81.6633 1440.13 L81.6633 1444.07 L51.9875 1444.07 L51.9875 1440.13 Z" fill="#000000" fill-rule="nonzero" fill-opacity="1" /><path clip-path="url(#clip880)" d="M101.756 1425.48 Q98.1447 1425.48 96.316 1429.04 Q94.5104 1432.59 94.5104 1439.72 Q94.5104 1446.82 96.316 1450.39 Q98.1447 1453.93 101.756 1453.93 Q105.39 1453.93 107.196 1450.39 Q109.024 1446.82 109.024 1439.72 Q109.024 1432.59 107.196 1429.04 Q105.39 1425.48 101.756 1425.48 M101.756 1421.78 Q107.566 1421.78 110.621 1426.38 Q113.7 1430.97 113.7 1439.72 Q113.7 1448.44 110.621 1453.05 Q107.566 1457.63 101.756 1457.63 Q95.9456 1457.63 92.8669 1453.05 Q89.8114 1448.44 89.8114 1439.72 Q89.8114 1430.97 92.8669 1426.38 Q95.9456 1421.78 101.756 1421.78 Z" fill="#000000" fill-rule="nonzero" fill-opacity="1" /><path clip-path="url(#clip880)" d="M121.918 1451.08 L126.802 1451.08 L126.802 1456.96 L121.918 1456.96 L121.918 1451.08 Z" fill="#000000" fill-rule="nonzero" fill-opacity="1" /><path clip-path="url(#clip880)" d="M146.987 1425.48 Q143.376 1425.48 141.547 1429.04 Q139.742 1432.59 139.742 1439.72 Q139.742 1446.82 141.547 1450.39 Q143.376 1453.93 146.987 1453.93 Q150.621 1453.93 152.427 1450.39 Q154.255 1446.82 154.255 1439.72 Q154.255 1432.59 152.427 1429.04 Q150.621 1425.48 146.987 1425.48 M146.987 1421.78 Q152.797 1421.78 155.853 1426.38 Q158.931 1430.97 158.931 1439.72 Q158.931 1448.44 155.853 1453.05 Q152.797 1457.63 146.987 1457.63 Q141.177 1457.63 138.098 1453.05 Q135.043 1448.44 135.043 1439.72 Q135.043 1430.97 138.098 1426.38 Q141.177 1421.78 146.987 1421.78 Z" fill="#000000" fill-rule="nonzero" fill-opacity="1" /><path clip-path="url(#clip880)" d="M167.959 1453.03 L175.598 1453.03 L175.598 1426.66 L167.288 1428.33 L167.288 1424.07 L175.552 1422.4 L180.228 1422.4 L180.228 1453.03 L187.866 1453.03 L187.866 1456.96 L167.959 1456.96 L167.959 1453.03 Z" fill="#000000" fill-rule="nonzero" fill-opacity="1" /><path clip-path="url(#clip880)" d="M197.357 1422.4 L215.713 1422.4 L215.713 1426.34 L201.639 1426.34 L201.639 1434.81 Q202.658 1434.46 203.676 1434.3 Q204.695 1434.11 205.714 1434.11 Q211.501 1434.11 214.88 1437.29 Q218.26 1440.46 218.26 1445.87 Q218.26 1451.45 214.788 1454.55 Q211.315 1457.63 204.996 1457.63 Q202.82 1457.63 200.552 1457.26 Q198.306 1456.89 195.899 1456.15 L195.899 1451.45 Q197.982 1452.59 200.204 1453.14 Q202.426 1453.7 204.903 1453.7 Q208.908 1453.7 211.246 1451.59 Q213.584 1449.48 213.584 1445.87 Q213.584 1442.26 211.246 1440.16 Q208.908 1438.05 204.903 1438.05 Q203.028 1438.05 201.153 1438.47 Q199.302 1438.88 197.357 1439.76 L197.357 1422.4 Z" fill="#000000" fill-rule="nonzero" fill-opacity="1" /><path clip-path="url(#clip880)" d="M50.9921 1219.45 L80.6679 1219.45 L80.6679 1223.38 L50.9921 1223.38 L50.9921 1219.45 Z" fill="#000000" fill-rule="nonzero" fill-opacity="1" /><path clip-path="url(#clip880)" d="M100.76 1204.79 Q97.1493 1204.79 95.3206 1208.36 Q93.515 1211.9 93.515 1219.03 Q93.515 1226.14 95.3206 1229.7 Q97.1493 1233.24 100.76 1233.24 Q104.395 1233.24 106.2 1229.7 Q108.029 1226.14 108.029 1219.03 Q108.029 1211.9 106.2 1208.36 Q104.395 1204.79 100.76 1204.79 M100.76 1201.09 Q106.571 1201.09 109.626 1205.7 Q112.705 1210.28 112.705 1219.03 Q112.705 1227.76 109.626 1232.36 Q106.571 1236.95 100.76 1236.95 Q94.9502 1236.95 91.8715 1232.36 Q88.816 1227.76 88.816 1219.03 Q88.816 1210.28 91.8715 1205.7 Q94.9502 1201.09 100.76 1201.09 Z" fill="#000000" fill-rule="nonzero" fill-opacity="1" /><path clip-path="url(#clip880)" d="M120.922 1230.4 L125.807 1230.4 L125.807 1236.27 L120.922 1236.27 L120.922 1230.4 Z" fill="#000000" fill-rule="nonzero" fill-opacity="1" /><path clip-path="url(#clip880)" d="M145.992 1204.79 Q142.381 1204.79 140.552 1208.36 Q138.746 1211.9 138.746 1219.03 Q138.746 1226.14 140.552 1229.7 Q142.381 1233.24 145.992 1233.24 Q149.626 1233.24 151.431 1229.7 Q153.26 1226.14 153.26 1219.03 Q153.26 1211.9 151.431 1208.36 Q149.626 1204.79 145.992 1204.79 M145.992 1201.09 Q151.802 1201.09 154.857 1205.7 Q157.936 1210.28 157.936 1219.03 Q157.936 1227.76 154.857 1232.36 Q151.802 1236.95 145.992 1236.95 Q140.181 1236.95 137.103 1232.36 Q134.047 1227.76 134.047 1219.03 Q134.047 1210.28 137.103 1205.7 Q140.181 1201.09 145.992 1201.09 Z" fill="#000000" fill-rule="nonzero" fill-opacity="1" /><path clip-path="url(#clip880)" d="M166.964 1232.34 L174.603 1232.34 L174.603 1205.97 L166.292 1207.64 L166.292 1203.38 L174.556 1201.71 L179.232 1201.71 L179.232 1232.34 L186.871 1232.34 L186.871 1236.27 L166.964 1236.27 L166.964 1232.34 Z" fill="#000000" fill-rule="nonzero" fill-opacity="1" /><path clip-path="url(#clip880)" d="M206.315 1204.79 Q202.704 1204.79 200.876 1208.36 Q199.07 1211.9 199.07 1219.03 Q199.07 1226.14 200.876 1229.7 Q202.704 1233.24 206.315 1233.24 Q209.95 1233.24 211.755 1229.7 Q213.584 1226.14 213.584 1219.03 Q213.584 1211.9 211.755 1208.36 Q209.95 1204.79 206.315 1204.79 M206.315 1201.09 Q212.126 1201.09 215.181 1205.7 Q218.26 1210.28 218.26 1219.03 Q218.26 1227.76 215.181 1232.36 Q212.126 1236.95 206.315 1236.95 Q200.505 1236.95 197.427 1232.36 Q194.371 1227.76 194.371 1219.03 Q194.371 1210.28 197.427 1205.7 Q200.505 1201.09 206.315 1201.09 Z" fill="#000000" fill-rule="nonzero" fill-opacity="1" /><path clip-path="url(#clip880)" d="M51.9875 998.76 L81.6633 998.76 L81.6633 1002.69 L51.9875 1002.69 L51.9875 998.76 Z" fill="#000000" fill-rule="nonzero" fill-opacity="1" /><path clip-path="url(#clip880)" d="M101.756 984.107 Q98.1447 984.107 96.316 987.672 Q94.5104 991.213 94.5104 998.343 Q94.5104 1005.45 96.316 1009.01 Q98.1447 1012.56 101.756 1012.56 Q105.39 1012.56 107.196 1009.01 Q109.024 1005.45 109.024 998.343 Q109.024 991.213 107.196 987.672 Q105.39 984.107 101.756 984.107 M101.756 980.403 Q107.566 980.403 110.621 985.01 Q113.7 989.593 113.7 998.343 Q113.7 1007.07 110.621 1011.68 Q107.566 1016.26 101.756 1016.26 Q95.9456 1016.26 92.8669 1011.68 Q89.8114 1007.07 89.8114 998.343 Q89.8114 989.593 92.8669 985.01 Q95.9456 980.403 101.756 980.403 Z" fill="#000000" fill-rule="nonzero" fill-opacity="1" /><path clip-path="url(#clip880)" d="M121.918 1009.71 L126.802 1009.71 L126.802 1015.59 L121.918 1015.59 L121.918 1009.71 Z" fill="#000000" fill-rule="nonzero" fill-opacity="1" /><path clip-path="url(#clip880)" d="M146.987 984.107 Q143.376 984.107 141.547 987.672 Q139.742 991.213 139.742 998.343 Q139.742 1005.45 141.547 1009.01 Q143.376 1012.56 146.987 1012.56 Q150.621 1012.56 152.427 1009.01 Q154.255 1005.45 154.255 998.343 Q154.255 991.213 152.427 987.672 Q150.621 984.107 146.987 984.107 M146.987 980.403 Q152.797 980.403 155.853 985.01 Q158.931 989.593 158.931 998.343 Q158.931 1007.07 155.853 1011.68 Q152.797 1016.26 146.987 1016.26 Q141.177 1016.26 138.098 1011.68 Q135.043 1007.07 135.043 998.343 Q135.043 989.593 138.098 985.01 Q141.177 980.403 146.987 980.403 Z" fill="#000000" fill-rule="nonzero" fill-opacity="1" /><path clip-path="url(#clip880)" d="M177.149 984.107 Q173.538 984.107 171.709 987.672 Q169.904 991.213 169.904 998.343 Q169.904 1005.45 171.709 1009.01 Q173.538 1012.56 177.149 1012.56 Q180.783 1012.56 182.589 1009.01 Q184.417 1005.45 184.417 998.343 Q184.417 991.213 182.589 987.672 Q180.783 984.107 177.149 984.107 M177.149 980.403 Q182.959 980.403 186.015 985.01 Q189.093 989.593 189.093 998.343 Q189.093 1007.07 186.015 1011.68 Q182.959 1016.26 177.149 1016.26 Q171.339 1016.26 168.26 1011.68 Q165.204 1007.07 165.204 998.343 Q165.204 989.593 168.26 985.01 Q171.339 980.403 177.149 980.403 Z" fill="#000000" fill-rule="nonzero" fill-opacity="1" /><path clip-path="url(#clip880)" d="M197.357 981.028 L215.713 981.028 L215.713 984.963 L201.639 984.963 L201.639 993.436 Q202.658 993.088 203.676 992.926 Q204.695 992.741 205.714 992.741 Q211.501 992.741 214.88 995.912 Q218.26 999.084 218.26 1004.5 Q218.26 1010.08 214.788 1013.18 Q211.315 1016.26 204.996 1016.26 Q202.82 1016.26 200.552 1015.89 Q198.306 1015.52 195.899 1014.78 L195.899 1010.08 Q197.982 1011.21 200.204 1011.77 Q202.426 1012.32 204.903 1012.32 Q208.908 1012.32 211.246 1010.22 Q213.584 1008.11 213.584 1004.5 Q213.584 1000.89 211.246 998.783 Q208.908 996.676 204.903 996.676 Q203.028 996.676 201.153 997.093 Q199.302 997.51 197.357 998.389 L197.357 981.028 Z" fill="#000000" fill-rule="nonzero" fill-opacity="1" /><path clip-path="url(#clip880)" d="M100.76 763.42 Q97.1493 763.42 95.3206 766.985 Q93.515 770.527 93.515 777.656 Q93.515 784.763 95.3206 788.328 Q97.1493 791.869 100.76 791.869 Q104.395 791.869 106.2 788.328 Q108.029 784.763 108.029 777.656 Q108.029 770.527 106.2 766.985 Q104.395 763.42 100.76 763.42 M100.76 759.717 Q106.571 759.717 109.626 764.323 Q112.705 768.906 112.705 777.656 Q112.705 786.383 109.626 790.99 Q106.571 795.573 100.76 795.573 Q94.9502 795.573 91.8715 790.99 Q88.816 786.383 88.816 777.656 Q88.816 768.906 91.8715 764.323 Q94.9502 759.717 100.76 759.717 Z" fill="#000000" fill-rule="nonzero" fill-opacity="1" /><path clip-path="url(#clip880)" d="M120.922 789.022 L125.807 789.022 L125.807 794.902 L120.922 794.902 L120.922 789.022 Z" fill="#000000" fill-rule="nonzero" fill-opacity="1" /><path clip-path="url(#clip880)" d="M145.992 763.42 Q142.381 763.42 140.552 766.985 Q138.746 770.527 138.746 777.656 Q138.746 784.763 140.552 788.328 Q142.381 791.869 145.992 791.869 Q149.626 791.869 151.431 788.328 Q153.26 784.763 153.26 777.656 Q153.26 770.527 151.431 766.985 Q149.626 763.42 145.992 763.42 M145.992 759.717 Q151.802 759.717 154.857 764.323 Q157.936 768.906 157.936 777.656 Q157.936 786.383 154.857 790.99 Q151.802 795.573 145.992 795.573 Q140.181 795.573 137.103 790.99 Q134.047 786.383 134.047 777.656 Q134.047 768.906 137.103 764.323 Q140.181 759.717 145.992 759.717 Z" fill="#000000" fill-rule="nonzero" fill-opacity="1" /><path clip-path="url(#clip880)" d="M176.153 763.42 Q172.542 763.42 170.714 766.985 Q168.908 770.527 168.908 777.656 Q168.908 784.763 170.714 788.328 Q172.542 791.869 176.153 791.869 Q179.788 791.869 181.593 788.328 Q183.422 784.763 183.422 777.656 Q183.422 770.527 181.593 766.985 Q179.788 763.42 176.153 763.42 M176.153 759.717 Q181.964 759.717 185.019 764.323 Q188.098 768.906 188.098 777.656 Q188.098 786.383 185.019 790.99 Q181.964 795.573 176.153 795.573 Q170.343 795.573 167.265 790.99 Q164.209 786.383 164.209 777.656 Q164.209 768.906 167.265 764.323 Q170.343 759.717 176.153 759.717 Z" fill="#000000" fill-rule="nonzero" fill-opacity="1" /><path clip-path="url(#clip880)" d="M206.315 763.42 Q202.704 763.42 200.876 766.985 Q199.07 770.527 199.07 777.656 Q199.07 784.763 200.876 788.328 Q202.704 791.869 206.315 791.869 Q209.95 791.869 211.755 788.328 Q213.584 784.763 213.584 777.656 Q213.584 770.527 211.755 766.985 Q209.95 763.42 206.315 763.42 M206.315 759.717 Q212.126 759.717 215.181 764.323 Q218.26 768.906 218.26 777.656 Q218.26 786.383 215.181 790.99 Q212.126 795.573 206.315 795.573 Q200.505 795.573 197.427 790.99 Q194.371 786.383 194.371 777.656 Q194.371 768.906 197.427 764.323 Q200.505 759.717 206.315 759.717 Z" fill="#000000" fill-rule="nonzero" fill-opacity="1" /><path clip-path="url(#clip880)" d="M101.756 542.734 Q98.1447 542.734 96.316 546.299 Q94.5104 549.84 94.5104 556.97 Q94.5104 564.076 96.316 567.641 Q98.1447 571.183 101.756 571.183 Q105.39 571.183 107.196 567.641 Q109.024 564.076 109.024 556.97 Q109.024 549.84 107.196 546.299 Q105.39 542.734 101.756 542.734 M101.756 539.03 Q107.566 539.03 110.621 543.637 Q113.7 548.22 113.7 556.97 Q113.7 565.697 110.621 570.303 Q107.566 574.886 101.756 574.886 Q95.9456 574.886 92.8669 570.303 Q89.8114 565.697 89.8114 556.97 Q89.8114 548.22 92.8669 543.637 Q95.9456 539.03 101.756 539.03 Z" fill="#000000" fill-rule="nonzero" fill-opacity="1" /><path clip-path="url(#clip880)" d="M121.918 568.336 L126.802 568.336 L126.802 574.215 L121.918 574.215 L121.918 568.336 Z" fill="#000000" fill-rule="nonzero" fill-opacity="1" /><path clip-path="url(#clip880)" d="M146.987 542.734 Q143.376 542.734 141.547 546.299 Q139.742 549.84 139.742 556.97 Q139.742 564.076 141.547 567.641 Q143.376 571.183 146.987 571.183 Q150.621 571.183 152.427 567.641 Q154.255 564.076 154.255 556.97 Q154.255 549.84 152.427 546.299 Q150.621 542.734 146.987 542.734 M146.987 539.03 Q152.797 539.03 155.853 543.637 Q158.931 548.22 158.931 556.97 Q158.931 565.697 155.853 570.303 Q152.797 574.886 146.987 574.886 Q141.177 574.886 138.098 570.303 Q135.043 565.697 135.043 556.97 Q135.043 548.22 138.098 543.637 Q141.177 539.03 146.987 539.03 Z" fill="#000000" fill-rule="nonzero" fill-opacity="1" /><path clip-path="url(#clip880)" d="M177.149 542.734 Q173.538 542.734 171.709 546.299 Q169.904 549.84 169.904 556.97 Q169.904 564.076 171.709 567.641 Q173.538 571.183 177.149 571.183 Q180.783 571.183 182.589 567.641 Q184.417 564.076 184.417 556.97 Q184.417 549.84 182.589 546.299 Q180.783 542.734 177.149 542.734 M177.149 539.03 Q182.959 539.03 186.015 543.637 Q189.093 548.22 189.093 556.97 Q189.093 565.697 186.015 570.303 Q182.959 574.886 177.149 574.886 Q171.339 574.886 168.26 570.303 Q165.204 565.697 165.204 556.97 Q165.204 548.22 168.26 543.637 Q171.339 539.03 177.149 539.03 Z" fill="#000000" fill-rule="nonzero" fill-opacity="1" /><path clip-path="url(#clip880)" d="M197.357 539.655 L215.713 539.655 L215.713 543.59 L201.639 543.59 L201.639 552.063 Q202.658 551.715 203.676 551.553 Q204.695 551.368 205.714 551.368 Q211.501 551.368 214.88 554.539 Q218.26 557.711 218.26 563.127 Q218.26 568.706 214.788 571.808 Q211.315 574.886 204.996 574.886 Q202.82 574.886 200.552 574.516 Q198.306 574.146 195.899 573.405 L195.899 568.706 Q197.982 569.84 200.204 570.396 Q202.426 570.951 204.903 570.951 Q208.908 570.951 211.246 568.845 Q213.584 566.738 213.584 563.127 Q213.584 559.516 211.246 557.41 Q208.908 555.303 204.903 555.303 Q203.028 555.303 201.153 555.72 Q199.302 556.137 197.357 557.016 L197.357 539.655 Z" fill="#000000" fill-rule="nonzero" fill-opacity="1" /><path clip-path="url(#clip880)" d="M100.76 322.047 Q97.1493 322.047 95.3206 325.612 Q93.515 329.154 93.515 336.283 Q93.515 343.39 95.3206 346.955 Q97.1493 350.496 100.76 350.496 Q104.395 350.496 106.2 346.955 Q108.029 343.39 108.029 336.283 Q108.029 329.154 106.2 325.612 Q104.395 322.047 100.76 322.047 M100.76 318.344 Q106.571 318.344 109.626 322.95 Q112.705 327.533 112.705 336.283 Q112.705 345.01 109.626 349.617 Q106.571 354.2 100.76 354.2 Q94.9502 354.2 91.8715 349.617 Q88.816 345.01 88.816 336.283 Q88.816 327.533 91.8715 322.95 Q94.9502 318.344 100.76 318.344 Z" fill="#000000" fill-rule="nonzero" fill-opacity="1" /><path clip-path="url(#clip880)" d="M120.922 347.649 L125.807 347.649 L125.807 353.529 L120.922 353.529 L120.922 347.649 Z" fill="#000000" fill-rule="nonzero" fill-opacity="1" /><path clip-path="url(#clip880)" d="M145.992 322.047 Q142.381 322.047 140.552 325.612 Q138.746 329.154 138.746 336.283 Q138.746 343.39 140.552 346.955 Q142.381 350.496 145.992 350.496 Q149.626 350.496 151.431 346.955 Q153.26 343.39 153.26 336.283 Q153.26 329.154 151.431 325.612 Q149.626 322.047 145.992 322.047 M145.992 318.344 Q151.802 318.344 154.857 322.95 Q157.936 327.533 157.936 336.283 Q157.936 345.01 154.857 349.617 Q151.802 354.2 145.992 354.2 Q140.181 354.2 137.103 349.617 Q134.047 345.01 134.047 336.283 Q134.047 327.533 137.103 322.95 Q140.181 318.344 145.992 318.344 Z" fill="#000000" fill-rule="nonzero" fill-opacity="1" /><path clip-path="url(#clip880)" d="M166.964 349.593 L174.603 349.593 L174.603 323.228 L166.292 324.895 L166.292 320.635 L174.556 318.969 L179.232 318.969 L179.232 349.593 L186.871 349.593 L186.871 353.529 L166.964 353.529 L166.964 349.593 Z" fill="#000000" fill-rule="nonzero" fill-opacity="1" /><path clip-path="url(#clip880)" d="M206.315 322.047 Q202.704 322.047 200.876 325.612 Q199.07 329.154 199.07 336.283 Q199.07 343.39 200.876 346.955 Q202.704 350.496 206.315 350.496 Q209.95 350.496 211.755 346.955 Q213.584 343.39 213.584 336.283 Q213.584 329.154 211.755 325.612 Q209.95 322.047 206.315 322.047 M206.315 318.344 Q212.126 318.344 215.181 322.95 Q218.26 327.533 218.26 336.283 Q218.26 345.01 215.181 349.617 Q212.126 354.2 206.315 354.2 Q200.505 354.2 197.427 349.617 Q194.371 345.01 194.371 336.283 Q194.371 327.533 197.427 322.95 Q200.505 318.344 206.315 318.344 Z" fill="#000000" fill-rule="nonzero" fill-opacity="1" /><path clip-path="url(#clip880)" d="M101.756 101.361 Q98.1447 101.361 96.316 104.926 Q94.5104 108.467 94.5104 115.597 Q94.5104 122.703 96.316 126.268 Q98.1447 129.81 101.756 129.81 Q105.39 129.81 107.196 126.268 Q109.024 122.703 109.024 115.597 Q109.024 108.467 107.196 104.926 Q105.39 101.361 101.756 101.361 M101.756 97.6571 Q107.566 97.6571 110.621 102.264 Q113.7 106.847 113.7 115.597 Q113.7 124.324 110.621 128.93 Q107.566 133.513 101.756 133.513 Q95.9456 133.513 92.8669 128.93 Q89.8114 124.324 89.8114 115.597 Q89.8114 106.847 92.8669 102.264 Q95.9456 97.6571 101.756 97.6571 Z" fill="#000000" fill-rule="nonzero" fill-opacity="1" /><path clip-path="url(#clip880)" d="M121.918 126.962 L126.802 126.962 L126.802 132.842 L121.918 132.842 L121.918 126.962 Z" fill="#000000" fill-rule="nonzero" fill-opacity="1" /><path clip-path="url(#clip880)" d="M146.987 101.361 Q143.376 101.361 141.547 104.926 Q139.742 108.467 139.742 115.597 Q139.742 122.703 141.547 126.268 Q143.376 129.81 146.987 129.81 Q150.621 129.81 152.427 126.268 Q154.255 122.703 154.255 115.597 Q154.255 108.467 152.427 104.926 Q150.621 101.361 146.987 101.361 M146.987 97.6571 Q152.797 97.6571 155.853 102.264 Q158.931 106.847 158.931 115.597 Q158.931 124.324 155.853 128.93 Q152.797 133.513 146.987 133.513 Q141.177 133.513 138.098 128.93 Q135.043 124.324 135.043 115.597 Q135.043 106.847 138.098 102.264 Q141.177 97.6571 146.987 97.6571 Z" fill="#000000" fill-rule="nonzero" fill-opacity="1" /><path clip-path="url(#clip880)" d="M167.959 128.907 L175.598 128.907 L175.598 102.541 L167.288 104.208 L167.288 99.9488 L175.552 98.2821 L180.228 98.2821 L180.228 128.907 L187.866 128.907 L187.866 132.842 L167.959 132.842 L167.959 128.907 Z" fill="#000000" fill-rule="nonzero" fill-opacity="1" /><path clip-path="url(#clip880)" d="M197.357 98.2821 L215.713 98.2821 L215.713 102.217 L201.639 102.217 L201.639 110.689 Q202.658 110.342 203.676 110.18 Q204.695 109.995 205.714 109.995 Q211.501 109.995 214.88 113.166 Q218.26 116.338 218.26 121.754 Q218.26 127.333 214.788 130.435 Q211.315 133.513 204.996 133.513 Q202.82 133.513 200.552 133.143 Q198.306 132.773 195.899 132.032 L195.899 127.333 Q197.982 128.467 200.204 129.023 Q202.426 129.578 204.903 129.578 Q208.908 129.578 211.246 127.472 Q213.584 125.365 213.584 121.754 Q213.584 118.143 211.246 116.037 Q208.908 113.93 204.903 113.93 Q203.028 113.93 201.153 114.347 Q199.302 114.763 197.357 115.643 L197.357 98.2821 Z" fill="#000000" fill-rule="nonzero" fill-opacity="1" /><polyline clip-path="url(#clip882)" style="stroke:#009af9; stroke-linecap:round; stroke-linejoin:round; stroke-width:4; stroke-opacity:1; fill:none" points="313.651,1445.72 318.6,1273.3 323.55,950.033 328.499,562.108 333.448,281.939 338.398,131.079 343.347,260.388 348.296,626.762 353.245,971.584 358.195,1294.86 363.144,1424.16 368.093,1273.3 373.043,950.033 377.992,562.108 382.941,238.836 387.89,131.079 392.84,260.388 397.789,583.659 402.738,993.136 407.688,1294.86 412.637,1402.61 417.586,1273.3 422.535,950.033 427.485,540.556 432.434,238.836 437.383,152.631 442.333,281.939 447.282,626.762 452.231,993.136 457.18,1294.86 462.13,1424.16 467.079,1294.86 472.028,928.482 476.978,540.556 481.927,238.836 486.876,152.631 491.825,260.388 496.775,605.21 501.724,1036.24 506.673,1316.41 511.622,1424.16 516.572,1273.3 521.521,928.482 526.47,540.556 531.42,217.285 536.369,131.079 541.318,303.49 546.267,648.313 551.217,1014.69 556.166,1316.41 561.115,1424.16 566.065,1230.2 571.014,928.482 575.963,562.108 580.912,238.836 585.862,174.182 590.811,281.939 595.76,605.21 600.71,1036.24 605.659,1359.51 610.608,1445.72 615.557,1251.75 620.507,885.379 625.456,519.005 630.405,217.285 635.355,174.182 640.304,368.145 645.253,734.519 650.202,1122.44 655.152,1381.06 660.101,1445.72 665.05,1230.2 670,885.379 674.949,519.005 679.898,195.733 684.847,131.079 689.797,303.49 694.746,648.313 699.695,1100.89 704.645,1424.16 709.594,1445.72 714.543,1208.65 719.492,842.276 724.442,454.35 729.391,217.285 734.34,174.182 739.29,346.593 744.239,756.07 749.188,1144 754.137,1402.61 759.087,1424.16 764.036,1187.1 768.985,863.827 773.935,475.902 778.884,195.733 783.833,131.079 788.782,346.593 793.732,712.967 798.681,1057.79 803.63,1359.51 808.579,1424.16 813.529,1187.1 818.478,842.276 823.427,475.902 828.377,217.285 833.326,174.182 838.275,411.248 843.224,777.622 848.174,1144 853.123,1402.61 858.072,1402.61 863.022,1187.1 867.971,842.276 872.92,432.799 877.869,174.182 882.819,152.631 887.768,368.145 892.717,712.967 897.667,1165.55 902.616,1424.16 907.565,1381.06 912.514,1208.65 917.464,842.276 922.413,411.248 927.362,152.631 932.312,195.733 937.261,411.248 942.21,756.07 947.159,1187.1 952.109,1402.61 957.058,1381.06 962.007,1165.55 966.957,777.622 971.906,411.248 976.855,217.285 981.804,174.182 986.754,389.696 991.703,777.622 996.652,1165.55 1001.6,1424.16 1006.55,1381.06 1011.5,1144 1016.45,799.173 1021.4,389.696 1026.35,152.631 1031.3,174.182 1036.25,432.799 1041.2,799.173 1046.15,1144 1051.09,1402.61 1056.04,1402.61 1060.99,1100.89 1065.94,734.519 1070.89,389.696 1075.84,152.631 1080.79,174.182 1085.74,389.696 1090.69,756.07 1095.64,1187.1 1100.59,1445.72 1105.54,1402.61 1110.49,1100.89 1115.44,734.519 1120.38,389.696 1125.33,152.631 1130.28,195.733 1135.23,454.35 1140.18,820.725 1145.13,1187.1 1150.08,1424.16 1155.03,1381.06 1159.98,1122.44 1164.93,777.622 1169.88,411.248 1174.83,195.733 1179.78,238.836 1184.73,432.799 1189.67,842.276 1194.62,1208.65 1199.57,1424.16 1204.52,1402.61 1209.47,1100.89 1214.42,691.416 1219.37,346.593 1224.32,131.079 1229.27,217.285 1234.22,475.902 1239.17,885.379 1244.12,1230.2 1249.07,1381.06 1254.01,1381.06 1258.96,1122.44 1263.91,712.967 1268.86,368.145 1273.81,174.182 1278.76,238.836 1283.71,497.453 1288.66,863.827 1293.61,1230.2 1298.56,1445.72 1303.51,1359.51 1308.46,1057.79 1313.41,712.967 1318.36,325.042 1323.3,87.9763 1328.25,195.733 1333.2,497.453 1338.15,885.379 1343.1,1230.2 1348.05,1402.61 1353,1316.41 1357.95,1036.24 1362.9,691.416 1367.85,325.042 1372.8,131.079 1377.75,217.285 1382.7,475.902 1387.65,842.276 1392.59,1208.65 1397.54,1424.16 1402.49,1359.51 1407.44,1057.79 1412.39,626.762 1417.34,281.939 1422.29,109.528 1427.24,195.733 1432.19,519.005 1437.14,906.93 1442.09,1251.75 1447.04,1402.61 1451.99,1294.86 1456.94,1014.69 1461.88,669.865 1466.83,325.042 1471.78,109.528 1476.73,195.733 1481.68,519.005 1486.63,863.827 1491.58,1230.2 1496.53,1424.16 1501.48,1316.41 1506.43,1014.69 1511.38,626.762 1516.33,281.939 1521.28,152.631 1526.23,238.836 1531.17,562.108 1536.12,950.033 1541.07,1251.75 1546.02,1424.16 1550.97,1294.86 1555.92,993.136 1560.87,626.762 1565.82,281.939 1570.77,131.079 1575.72,260.388 1580.67,519.005 1585.62,906.93 1590.57,1251.75 1595.52,1424.16 1600.46,1316.41 1605.41,971.584 1610.36,605.21 1615.31,281.939 1620.26,131.079 1625.21,238.836 1630.16,562.108 1635.11,950.033 1640.06,1294.86 1645.01,1402.61 1649.96,1251.75 1654.91,950.033 1659.86,605.21 1664.81,281.939 1669.75,131.079 1674.7,238.836 1679.65,540.556 1684.6,906.93 1689.55,1251.75 1694.5,1402.61 1699.45,1273.3 1704.4,971.584 1709.35,540.556 1714.3,238.836 1719.25,131.079 1724.2,260.388 1729.15,626.762 1734.1,1014.69 1739.04,1273.3 1743.99,1402.61 1748.94,1273.3 1753.89,971.584 1758.84,562.108 1763.79,238.836 1768.74,109.528 1773.69,238.836 1778.64,583.659 1783.59,971.584 1788.54,1273.3 1793.49,1402.61 1798.44,1294.86 1803.39,971.584 1808.33,519.005 1813.28,238.836 1818.23,174.182 1823.18,303.49 1828.13,669.865 1833.08,1079.34 1838.03,1337.96 1842.98,1445.72 1847.93,1273.3 1852.88,950.033 1857.83,540.556 1862.78,217.285 1867.73,152.631 1872.68,325.042 1877.62,648.313 1882.57,971.584 1887.52,1294.86 1892.47,1424.16 1897.42,1273.3 1902.37,928.482 1907.32,540.556 1912.27,217.285 1917.22,152.631 1922.17,281.939 1927.12,669.865 1932.07,1100.89 1937.02,1316.41 1941.97,1402.61 1946.91,1294.86 1951.86,906.93 1956.81,497.453 1961.76,217.285 1966.71,174.182 1971.66,325.042 1976.61,669.865 1981.56,1079.34 1986.51,1337.96 1991.46,1424.16 1996.41,1273.3 2001.36,885.379 2006.31,475.902 2011.26,217.285 2016.2,174.182 2021.15,346.593 2026.1,712.967 2031.05,1100.89 2036,1402.61 2040.95,1445.72 2045.9,1208.65 2050.85,863.827 2055.8,497.453 2060.75,195.733 2065.7,109.528 2070.65,346.593 2075.6,691.416 2080.55,1036.24 2085.49,1359.51 2090.44,1445.72 2095.39,1187.1 2100.34,820.725 2105.29,475.902 2110.24,238.836 2115.19,195.733 2120.14,346.593 2125.09,691.416 2130.04,1122.44 2134.99,1402.61 2139.94,1424.16 2144.89,1230.2 2149.84,842.276 2154.78,454.35 2159.73,260.388 2164.68,195.733 2169.63,346.593 2174.58,648.313 2179.53,1100.89 2184.48,1402.61 2189.43,1402.61 2194.38,1230.2 2199.33,820.725 2204.28,432.799 2209.23,174.182 2214.18,131.079 2219.13,389.696 2224.07,734.519 2229.02,1079.34 2233.97,1359.51 2238.92,1424.16 2243.87,1187.1 2248.82,799.173 2253.77,454.35 2258.72,195.733 2263.67,174.182 2268.62,368.145 2273.57,734.519 2278.52,1144 2283.47,1402.61 2288.42,1402.61 2293.36,1187.1 "/>
<path clip-path="url(#clip880)" d="M2020.53 198.898 L2282.81 198.898 L2282.81 95.2176 L2020.53 95.2176  Z" fill="#ffffff" fill-rule="evenodd" fill-opacity="1"/>
<polyline clip-path="url(#clip880)" style="stroke:#000000; stroke-linecap:round; stroke-linejoin:round; stroke-width:4; stroke-opacity:1; fill:none" points="2020.53,198.898 2282.81,198.898 2282.81,95.2176 2020.53,95.2176 2020.53,198.898 "/>
<polyline clip-path="url(#clip880)" style="stroke:#009af9; stroke-linecap:round; stroke-linejoin:round; stroke-width:4; stroke-opacity:1; fill:none" points="2043.84,147.058 2183.74,147.058 "/>
<path clip-path="url(#clip880)" d="M2220.9 166.745 Q2219.1 171.375 2217.38 172.787 Q2215.67 174.199 2212.8 174.199 L2209.4 174.199 L2209.4 170.634 L2211.9 170.634 Q2213.66 170.634 2214.63 169.8 Q2215.6 168.967 2216.78 165.865 L2217.55 163.921 L2207.06 138.412 L2211.57 138.412 L2219.67 158.689 L2227.78 138.412 L2232.29 138.412 L2220.9 166.745 Z" fill="#000000" fill-rule="nonzero" fill-opacity="1" /><path clip-path="url(#clip880)" d="M2239.58 160.402 L2247.22 160.402 L2247.22 134.037 L2238.91 135.703 L2238.91 131.444 L2247.17 129.778 L2251.85 129.778 L2251.85 160.402 L2259.49 160.402 L2259.49 164.338 L2239.58 164.338 L2239.58 160.402 Z" fill="#000000" fill-rule="nonzero" fill-opacity="1" /></svg>
